# xmcd CD database file
#
# Track frame offsets:
#	150
#	16087
#	38490
#	50300
#	72030
#	93757
#	115035
#	137995
#	187742
#	229147
#
# Disc length: 3305 seconds
#
# Revision: 0
# Processed by: cddbd v1.5.1PL0 Copyright (c) Steve Scherf et al.
# Submitted via: CDex 1.51
#
DISCID=6e0ce70a
DTITLE=Various Artist - JAZZ CRUISE 02 ブライト・デイライト
DYEAR=2001
DGENRE=Jazz
TTITLE0=スナップ，クラックル・アンド・ポップ（ジュニア・マンス）
TTITLE1=ガッタ・トラヴェル・オン（レイ・ブライアント・トリオ）
TTITLE2=２４のカプリッチョ（ヨーロピアン・ジャズ・トリオ）
TTITLE3=コール・ミー・トゥ・ユア・アームス（デューク・ジョーダン）
TTITLE4=イーヴィル（ザ・レニー・ホワイト・プロジェクト）
TTITLE5=ザ・クルーサファイア（ジュニア・クック）
TTITLE6=ゾゥ・スウェル（ジョン・ウィリアムス）
TTITLE7=グリーン・ドルフィン・ストリート（ジョージ・コールマン）
TTITLE8=ジーパーズ・クリーパーズ（ソニー・スティット）
TTITLE9=ドリーム（ケニー・ドリュー）
EXTD=YEAR: 2001
EXTT0=
EXTT1=
EXTT2=
EXTT3=
EXTT4=
EXTT5=
EXTT6=
EXTT7=
EXTT8=
EXTT9=
PLAYORDER=
